<?xml version="1.0" encoding="utf-8"?>
<!-- Generator: Adobe Illustrator 27.0.0, SVG Export Plug-In . SVG Version: 6.00 Build 0)  -->
<svg version="1.1" id="Layer_1" xmlns="http://www.w3.org/2000/svg" xmlns:xlink="http://www.w3.org/1999/xlink" x="0px" y="0px"
	 viewBox="0 0 841.89 595.28" style="enable-background:new 0 0 841.89 595.28;" xml:space="preserve">
<style type="text/css">
	.st0{fill:none;stroke:#000000;stroke-width:10.5269;stroke-miterlimit:10;}
	.st1{fill:#DDD4B3;}
	.st2{fill:#335C64;stroke:#000000;stroke-width:0.2193;}
	.st3{fill:#335C64;}
</style>
<g>
	<g>
		<path d="M273.56,346.37h-12.82v-115.1h18.93c9.92,0,20.15,0.3,28.55,6.11c8.55,5.95,12.98,16.03,12.98,26.26
			c0,9.31-3.82,18.78-10.99,24.73c-7.79,6.41-17.71,7.63-27.32,7.63h-9.31V346.37z M273.56,284.08h8.55
			c14.2,0,26.26-4.28,26.26-20.76c0-18.78-15.11-20.15-30.07-20.15h-4.73V284.08z"/>
		<path d="M337.53,231.27h59.69v11.91h-46.87v34.2h45.49v11.91h-45.49v45.19h46.87v11.91h-59.69V231.27z"/>
		<path d="M419.81,226.38l89.76,94.04v-89.15h12.82v120.29l-89.76-93.88v88.69h-12.82V226.38z"/>
		<path d="M623.15,279.96c12.21-0.46,22.74-4.12,22.74-18.62c0-12.21-8.09-20.15-20.15-20.15c-11.45,0-17.86,7.63-18.93,18.47
			h-12.67c1.83-18.32,12.98-30.38,31.91-30.38c18.47,0,32.67,12.52,32.67,31.45c0,10.23-5.5,20.46-14.81,25.19
			c11.14,5.04,16.49,16.49,16.49,28.24c0,20.15-16.03,34.2-35.72,34.2c-18.62,0-33.89-12.67-34.2-31.9H603
			c0.61,11.75,10.53,20,22.13,20c12.82,0,22.44-10.38,22.44-23.05c0-14.66-10.38-21.98-24.42-21.52V279.96z"/>
		<path d="M700.25,346.37h-12.82v-115.1h18.93c9.92,0,20.15,0.3,28.55,6.11c8.55,5.95,12.97,16.03,12.97,26.26
			c0,9.31-3.82,18.78-10.99,24.73c-7.79,6.41-17.71,7.63-27.33,7.63h-9.31V346.37z M700.25,284.08h8.55
			c14.2,0,26.26-4.28,26.26-20.76c0-18.78-15.11-20.15-30.07-20.15h-4.73V284.08z"/>
	</g>
	<rect x="86.21" y="197.81" class="st0" width="685.8" height="181.76"/>
	<g>
		
			<ellipse transform="matrix(0.161 -0.987 0.987 0.161 -136.1977 417.4111)" class="st1" cx="177.42" cy="288.81" rx="66.62" ry="66.63"/>
		<path class="st2" d="M177.22,288.74"/>
		<path class="st3" d="M177.22,288.74"/>
		<path class="st2" d="M177.22,288.74"/>
		<path class="st3" d="M232.63,288.84l11.35-0.01l0,0c-0.03,17.42-6.83,34.82-20.34,47.89c-26.5,25.64-68.76,24.94-94.4-1.56
			c-25.64-26.5-24.94-68.76,1.56-94.4c26.5-25.64,68.76-24.94,94.4,1.56c8.97,9.27,14.69,20.48,17.24,32.21l0,0l-4.67,6.35
			l-6.38-3.87l0,0c-2.11-9.77-6.88-19.09-14.34-26.8c-21.28-22-56.37-22.58-78.36-1.3c-22,21.28-22.58,56.37-1.29,78.37
			c21.28,22,56.37,22.58,78.37,1.29C226.97,317.72,232.61,303.29,232.63,288.84"/>
		<path class="st3" d="M181.84,264.43h1.71c3.67,0,7.29,0,7.29-4.8c0-4.96-3.36-5.01-7.29-5.01h-1.71V264.43z M153.45,296.4
			l-0.85-1.49c-1.84-3.21-3.64-6.38-7.76-3.97c-4.25,2.48-2.62,5.45-0.65,8.88l0.85,1.49L153.45,296.4z M176.8,294.61l-33.77,19.68
			l-7.76-13.57c-4.19-7.32-3.72-14.35,4.02-18.87c7.97-4.65,13.94-2.34,18.36,5.39l2.87,5.02l11.19-6.54l0,0l0-39.38h15.51
			c8.38,0,14.16,3.92,14.16,12.95c0,9.29-4.96,13.37-13.8,13.37h-5.74l0.02,13.07l0,0l33.78,19.7l-7.75,13.57
			c-4.19,7.33-10.44,10.43-18.18,5.92c-7.97-4.65-8.98-11.03-4.56-18.76l2.87-5.02L176.8,294.61L176.8,294.61z M195.08,305.27
			l-0.85,1.49c-1.84,3.21-3.65,6.38,0.47,8.78c4.25,2.48,5.98-0.43,7.94-3.87l0.85-1.49L195.08,305.27z"/>
	</g>
</g>
</svg>
