<?xml version="1.0" encoding="UTF-8"?><svg id="Layer_1" xmlns="http://www.w3.org/2000/svg" viewBox="0 0 133.58 133.52"><defs><style>.cls-1{fill:#ddd4b3;}.cls-2{fill:#335c64;}</style></defs><circle class="cls-1" cx="66.96" cy="66.83" r="66.63" transform="translate(-9.7 122.27) rotate(-80.82)"/><path class="cls-2" d="M122.17,66.85h11.35c-.03,17.42-6.83,34.82-20.34,47.89-26.5,25.64-68.76,24.94-94.4-1.56C-6.86,86.68-6.16,44.42,20.34,18.78c26.5-25.64,68.76-24.94,94.4,1.56,8.97,9.27,14.69,20.48,17.24,32.21h0l-4.67,6.35-6.38-3.87h0c-2.11-9.77-6.88-19.09-14.34-26.8C85.31,6.23,50.22,5.65,28.23,26.93c-22,21.28-22.58,56.37-1.29,78.37,21.28,22,56.37,22.58,78.37,1.29,11.21-10.85,16.85-25.28,16.87-39.74"/><path class="cls-2" d="M71.38,42.44h1.71c3.67,0,7.29,0,7.29-4.8s-3.36-5.01-7.29-5.01h-1.71v9.82Zm-28.39,31.97l-.85-1.49c-1.84-3.21-3.64-6.38-7.76-3.97-4.25,2.48-2.62,5.45-.65,8.88l.85,1.49,8.42-4.91Zm23.35-1.79l-33.77,19.68-7.76-13.57c-4.19-7.33-3.72-14.35,4.02-18.87,7.97-4.65,13.94-2.34,18.36,5.39l2.87,5.02,11.19-6.54h0V24.38h15.51c8.38,0,14.16,3.92,14.16,12.95s-4.96,13.37-13.8,13.37h-5.74l.02,13.07h0l33.78,19.7-7.75,13.57c-4.19,7.33-10.44,10.43-18.18,5.92-7.97-4.65-8.98-11.03-4.56-18.76l2.87-5.02-11.21-6.53h0Zm18.28,10.66l-.85,1.49c-1.84,3.21-3.65,6.38,.47,8.78,4.25,2.48,5.98-.43,7.94-3.87l.85-1.49-8.42-4.91Z"/></svg>